<svg xmlns="http://www.w3.org/2000/svg" width="99.047" height="114.333" viewBox="0 0 99.047 114.333"><path d="M99.045,7.149C99.045,2.3,94.964-1.115,91,.336l-61.9,21.1a7.11,7.11,0,0,0-4.333,6.811V86.625a23.382,23.382,0,0,0-6.19-.875C8.315,85.75,0,92.148,0,100.041s8.315,14.291,18.571,14.291,18.571-6.4,18.571-14.291V47.858L86.666,31.105V72.334a23.382,23.382,0,0,0-6.19-.875c-10.257,0-18.571,6.4-18.571,14.291s8.315,14.291,18.571,14.291,18.571-6.4,18.571-14.291l0-78.6Z" transform="translate(0 0.001)"/></svg>