<svg xmlns="http://www.w3.org/2000/svg" width="50.703" height="50.692" viewBox="0 0 50.703 50.692"><path d="M25.352,14.587a13,13,0,1,0,13,13A12.976,12.976,0,0,0,25.352,14.587Zm0,21.446a8.45,8.45,0,1,1,8.45-8.45,8.465,8.465,0,0,1-8.45,8.45Zm16.56-21.978a3.031,3.031,0,1,1-3.031-3.031A3.024,3.024,0,0,1,41.912,14.055Zm8.608,3.077c-.192-4.061-1.12-7.658-4.095-10.621S39.864,2.619,35.8,2.416c-4.185-.238-16.729-.238-20.915,0C10.839,2.608,7.242,3.536,4.268,6.5S.376,13.06.173,17.121c-.238,4.185-.238,16.729,0,20.915.192,4.061,1.12,7.658,4.095,10.621s6.561,3.891,10.621,4.095c4.185.238,16.729.238,20.915,0,4.061-.192,7.658-1.12,10.621-4.095s3.891-6.561,4.095-10.621c.238-4.185.238-16.718,0-20.9ZM45.113,42.526a8.554,8.554,0,0,1-4.819,4.819c-3.337,1.323-11.255,1.018-14.942,1.018s-11.617.294-14.942-1.018a8.554,8.554,0,0,1-4.819-4.819C4.268,39.189,4.573,31.271,4.573,27.583S4.279,15.967,5.591,12.641A8.554,8.554,0,0,1,10.41,7.823C13.746,6.5,21.664,6.8,25.352,6.8s11.617-.294,14.942,1.018a8.554,8.554,0,0,1,4.819,4.819c1.323,3.337,1.018,11.255,1.018,14.942S46.436,39.2,45.113,42.526Z" transform="translate(0.005 -2.238)"/></svg>