<svg xmlns="http://www.w3.org/2000/svg" width="72.095" height="50.692" viewBox="0 0 72.095 50.692"><path d="M71.638,12.432a9.059,9.059,0,0,0-6.374-6.415C59.642,4.5,37.1,4.5,37.1,4.5S14.553,4.5,8.93,6.016a9.059,9.059,0,0,0-6.374,6.415C1.05,18.09,1.05,29.9,1.05,29.9s0,11.807,1.506,17.465A8.924,8.924,0,0,0,8.93,53.675C14.553,55.192,37.1,55.192,37.1,55.192s22.545,0,28.167-1.516a8.924,8.924,0,0,0,6.374-6.313C73.145,41.7,73.145,29.9,73.145,29.9s0-11.807-1.506-17.465ZM29.724,40.617V19.177L48.567,29.9,29.724,40.617Z" transform="translate(-1.05 -4.5)"/></svg>